<mxfile host="app.diagrams.net" modified="2022-11-08T13:05:33.449Z" agent="5.0 (Windows NT 10.0; Win64; x64) AppleWebKit/537.36 (KHTML, like Gecko) Chrome/107.0.0.0 Safari/537.36 Edg/107.0.1418.35" etag="s1f9S3iDi4BRWGtCH538" version="20.5.3" type="github">
  <diagram id="aMUw_HGAtoVqigmY5qZD" name="Page-1">
    <mxGraphModel dx="749" dy="1144" grid="1" gridSize="10" guides="1" tooltips="1" connect="1" arrows="1" fold="1" page="1" pageScale="1" pageWidth="850" pageHeight="1100" math="0" shadow="0">
      <root>
        <mxCell id="0" />
        <mxCell id="1" parent="0" />
        <mxCell id="4p6H-ktbG_dCproothlc-28" style="edgeStyle=orthogonalEdgeStyle;rounded=0;orthogonalLoop=1;jettySize=auto;html=1;entryX=0.5;entryY=0;entryDx=0;entryDy=0;" parent="1" source="4p6H-ktbG_dCproothlc-1" target="4p6H-ktbG_dCproothlc-5" edge="1">
          <mxGeometry relative="1" as="geometry">
            <Array as="points">
              <mxPoint x="330" y="310" />
              <mxPoint x="120" y="310" />
            </Array>
          </mxGeometry>
        </mxCell>
        <mxCell id="4p6H-ktbG_dCproothlc-29" style="edgeStyle=orthogonalEdgeStyle;rounded=0;orthogonalLoop=1;jettySize=auto;html=1;entryX=0.5;entryY=0;entryDx=0;entryDy=0;" parent="1" source="4p6H-ktbG_dCproothlc-1" target="4p6H-ktbG_dCproothlc-13" edge="1">
          <mxGeometry relative="1" as="geometry">
            <Array as="points">
              <mxPoint x="330" y="310" />
              <mxPoint x="540" y="310" />
            </Array>
          </mxGeometry>
        </mxCell>
        <mxCell id="4p6H-ktbG_dCproothlc-1" value="ControladorPrincipal" style="swimlane;fontStyle=1;align=center;verticalAlign=top;childLayout=stackLayout;horizontal=1;startSize=26;horizontalStack=0;resizeParent=1;resizeParentMax=0;resizeLast=0;collapsible=1;marginBottom=0;" parent="1" vertex="1">
          <mxGeometry x="250" y="180" width="160" height="80" as="geometry" />
        </mxCell>
        <mxCell id="4p6H-ktbG_dCproothlc-3" value="" style="line;strokeWidth=1;fillColor=none;align=left;verticalAlign=middle;spacingTop=-1;spacingLeft=3;spacingRight=3;rotatable=0;labelPosition=right;points=[];portConstraint=eastwest;strokeColor=inherit;" parent="4p6H-ktbG_dCproothlc-1" vertex="1">
          <mxGeometry y="26" width="160" height="8" as="geometry" />
        </mxCell>
        <mxCell id="4p6H-ktbG_dCproothlc-4" value="+ controlador_icc_sub&#xa;+ controlador_icc_sup" style="text;strokeColor=none;fillColor=none;align=left;verticalAlign=top;spacingLeft=4;spacingRight=4;overflow=hidden;rotatable=0;points=[[0,0.5],[1,0.5]];portConstraint=eastwest;" parent="4p6H-ktbG_dCproothlc-1" vertex="1">
          <mxGeometry y="34" width="160" height="46" as="geometry" />
        </mxCell>
        <mxCell id="4p6H-ktbG_dCproothlc-5" value="ControladorICCSub" style="swimlane;fontStyle=1;align=center;verticalAlign=top;childLayout=stackLayout;horizontal=1;startSize=26;horizontalStack=0;resizeParent=1;resizeParentMax=0;resizeLast=0;collapsible=1;marginBottom=0;" parent="1" vertex="1">
          <mxGeometry x="40" y="380" width="160" height="80" as="geometry" />
        </mxCell>
        <mxCell id="4p6H-ktbG_dCproothlc-7" value="" style="line;strokeWidth=1;fillColor=none;align=left;verticalAlign=middle;spacingTop=-1;spacingLeft=3;spacingRight=3;rotatable=0;labelPosition=right;points=[];portConstraint=eastwest;strokeColor=inherit;" parent="4p6H-ktbG_dCproothlc-5" vertex="1">
          <mxGeometry y="26" width="160" height="8" as="geometry" />
        </mxCell>
        <mxCell id="4p6H-ktbG_dCproothlc-8" value="+ plotar_mk&#xa;+ plotar_graficos" style="text;strokeColor=none;fillColor=none;align=left;verticalAlign=top;spacingLeft=4;spacingRight=4;overflow=hidden;rotatable=0;points=[[0,0.5],[1,0.5]];portConstraint=eastwest;" parent="4p6H-ktbG_dCproothlc-5" vertex="1">
          <mxGeometry y="34" width="160" height="46" as="geometry" />
        </mxCell>
        <mxCell id="4p6H-ktbG_dCproothlc-9" value="TelaPrincipal" style="swimlane;fontStyle=1;align=center;verticalAlign=top;childLayout=stackLayout;horizontal=1;startSize=26;horizontalStack=0;resizeParent=1;resizeParentMax=0;resizeLast=0;collapsible=1;marginBottom=0;" parent="1" vertex="1">
          <mxGeometry x="440" y="175" width="160" height="90" as="geometry" />
        </mxCell>
        <mxCell id="4p6H-ktbG_dCproothlc-11" value="" style="line;strokeWidth=1;fillColor=none;align=left;verticalAlign=middle;spacingTop=-1;spacingLeft=3;spacingRight=3;rotatable=0;labelPosition=right;points=[];portConstraint=eastwest;strokeColor=inherit;" parent="4p6H-ktbG_dCproothlc-9" vertex="1">
          <mxGeometry y="26" width="160" height="8" as="geometry" />
        </mxCell>
        <mxCell id="4p6H-ktbG_dCproothlc-12" value="+ mostrar_menu&#xa;+ aguas_sub&#xa;+ aguas_sup" style="text;strokeColor=none;fillColor=none;align=left;verticalAlign=top;spacingLeft=4;spacingRight=4;overflow=hidden;rotatable=0;points=[[0,0.5],[1,0.5]];portConstraint=eastwest;" parent="4p6H-ktbG_dCproothlc-9" vertex="1">
          <mxGeometry y="34" width="160" height="56" as="geometry" />
        </mxCell>
        <mxCell id="4p6H-ktbG_dCproothlc-27" style="edgeStyle=orthogonalEdgeStyle;rounded=0;orthogonalLoop=1;jettySize=auto;html=1;" parent="1" source="4p6H-ktbG_dCproothlc-13" edge="1">
          <mxGeometry relative="1" as="geometry">
            <mxPoint x="650" y="420" as="targetPoint" />
          </mxGeometry>
        </mxCell>
        <mxCell id="4p6H-ktbG_dCproothlc-13" value="ControladorICCSup" style="swimlane;fontStyle=1;align=center;verticalAlign=top;childLayout=stackLayout;horizontal=1;startSize=26;horizontalStack=0;resizeParent=1;resizeParentMax=0;resizeLast=0;collapsible=1;marginBottom=0;" parent="1" vertex="1">
          <mxGeometry x="460" y="380" width="160" height="80" as="geometry" />
        </mxCell>
        <mxCell id="4p6H-ktbG_dCproothlc-14" value="" style="line;strokeWidth=1;fillColor=none;align=left;verticalAlign=middle;spacingTop=-1;spacingLeft=3;spacingRight=3;rotatable=0;labelPosition=right;points=[];portConstraint=eastwest;strokeColor=inherit;" parent="4p6H-ktbG_dCproothlc-13" vertex="1">
          <mxGeometry y="26" width="160" height="8" as="geometry" />
        </mxCell>
        <mxCell id="4p6H-ktbG_dCproothlc-15" value="+ plotar_mk&#xa;+ plotar_graficos" style="text;strokeColor=none;fillColor=none;align=left;verticalAlign=top;spacingLeft=4;spacingRight=4;overflow=hidden;rotatable=0;points=[[0,0.5],[1,0.5]];portConstraint=eastwest;" parent="4p6H-ktbG_dCproothlc-13" vertex="1">
          <mxGeometry y="34" width="160" height="46" as="geometry" />
        </mxCell>
        <mxCell id="4p6H-ktbG_dCproothlc-16" value="TelaSub" style="swimlane;fontStyle=1;align=center;verticalAlign=top;childLayout=stackLayout;horizontal=1;startSize=26;horizontalStack=0;resizeParent=1;resizeParentMax=0;resizeLast=0;collapsible=1;marginBottom=0;" parent="1" vertex="1">
          <mxGeometry x="240" y="380" width="160" height="100" as="geometry" />
        </mxCell>
        <mxCell id="4p6H-ktbG_dCproothlc-17" value="" style="line;strokeWidth=1;fillColor=none;align=left;verticalAlign=middle;spacingTop=-1;spacingLeft=3;spacingRight=3;rotatable=0;labelPosition=right;points=[];portConstraint=eastwest;strokeColor=inherit;" parent="4p6H-ktbG_dCproothlc-16" vertex="1">
          <mxGeometry y="26" width="160" height="8" as="geometry" />
        </mxCell>
        <mxCell id="4p6H-ktbG_dCproothlc-18" value="+ mostrar_menu&#xa;+ plotar_graficos_mk&#xa;+ plotar_graficos_algo&#xa;+ plotar_rotina_completa" style="text;strokeColor=none;fillColor=none;align=left;verticalAlign=top;spacingLeft=4;spacingRight=4;overflow=hidden;rotatable=0;points=[[0,0.5],[1,0.5]];portConstraint=eastwest;" parent="4p6H-ktbG_dCproothlc-16" vertex="1">
          <mxGeometry y="34" width="160" height="66" as="geometry" />
        </mxCell>
        <mxCell id="4p6H-ktbG_dCproothlc-19" value="TelaSup" style="swimlane;fontStyle=1;align=center;verticalAlign=top;childLayout=stackLayout;horizontal=1;startSize=26;horizontalStack=0;resizeParent=1;resizeParentMax=0;resizeLast=0;collapsible=1;marginBottom=0;" parent="1" vertex="1">
          <mxGeometry x="650" y="380" width="160" height="100" as="geometry" />
        </mxCell>
        <mxCell id="4p6H-ktbG_dCproothlc-20" value="" style="line;strokeWidth=1;fillColor=none;align=left;verticalAlign=middle;spacingTop=-1;spacingLeft=3;spacingRight=3;rotatable=0;labelPosition=right;points=[];portConstraint=eastwest;strokeColor=inherit;" parent="4p6H-ktbG_dCproothlc-19" vertex="1">
          <mxGeometry y="26" width="160" height="8" as="geometry" />
        </mxCell>
        <mxCell id="4p6H-ktbG_dCproothlc-21" value="+ mostar_menu&#xa;+ plotar_graficos_mk&#xa;+ plotar_graficos_algo&#xa;+ plotar_rotina_completa" style="text;strokeColor=none;fillColor=none;align=left;verticalAlign=top;spacingLeft=4;spacingRight=4;overflow=hidden;rotatable=0;points=[[0,0.5],[1,0.5]];portConstraint=eastwest;" parent="4p6H-ktbG_dCproothlc-19" vertex="1">
          <mxGeometry y="34" width="160" height="66" as="geometry" />
        </mxCell>
        <mxCell id="4p6H-ktbG_dCproothlc-22" style="edgeStyle=orthogonalEdgeStyle;rounded=0;orthogonalLoop=1;jettySize=auto;html=1;" parent="1" source="4p6H-ktbG_dCproothlc-4" target="4p6H-ktbG_dCproothlc-12" edge="1">
          <mxGeometry relative="1" as="geometry" />
        </mxCell>
        <mxCell id="4p6H-ktbG_dCproothlc-23" style="edgeStyle=orthogonalEdgeStyle;rounded=0;orthogonalLoop=1;jettySize=auto;html=1;" parent="1" source="4p6H-ktbG_dCproothlc-8" edge="1">
          <mxGeometry relative="1" as="geometry">
            <mxPoint x="240" y="437" as="targetPoint" />
          </mxGeometry>
        </mxCell>
      </root>
    </mxGraphModel>
  </diagram>
</mxfile>
